<?xml version="1.0" encoding="utf-8"?>
<!-- Generator: Adobe Illustrator 16.0.0, SVG Export Plug-In . SVG Version: 6.00 Build 0)  -->
<!DOCTYPE svg PUBLIC "-//W3C//DTD SVG 1.1//EN" "http://www.w3.org/Graphics/SVG/1.1/DTD/svg11.dtd">
<svg version="1.1" id="text" xmlns="http://www.w3.org/2000/svg" xmlns:xlink="http://www.w3.org/1999/xlink" x="0px" y="0px"
	 width="1339.107px" height="133.275px" viewBox="26.354 454.316 1339.107 133.275"
	 enable-background="new 26.354 454.316 1339.107 133.275" xml:space="preserve">
<g>
	<path fill="none" stroke="#FFFFFF" d="M62.543,585.334H32.999l17.908-100.107H26.954l5.214-28.389h77.675l-5.365,28.389H80.451
		L62.543,585.334z"/>
	<path fill="none" stroke="#FFFFFF" d="M188.425,585.334h-29.544l9.445-52.383h-26.144l-9.596,52.383h-29.543l23.348-128.496h29.544
		l-8.463,47.637h26.295l8.463-47.637h29.619L188.425,585.334z"/>
	<path fill="none" stroke="#FFFFFF" d="M279.097,585.334h-65.585l23.348-128.496h65.586l-4.912,27.861h-36.042l-3.551,20.215h33.549
		l-5.44,27.861H252.5l-4.307,24.258h36.042L279.097,585.334z"/>
	<path fill="none" stroke="#FFFFFF" d="M412.006,545.871c0,13.008-3.702,23.13-11.107,30.366
		c-7.405,7.237-17.731,10.854-30.979,10.854c-5.542,0-10.78-0.718-15.716-2.153c-4.937-1.436-9.193-3.529-12.77-6.284v-30.762
		c4.231,3.106,9.079,5.713,14.545,7.822c5.465,2.109,10.414,3.164,14.847,3.164c3.728,0,6.548-0.908,8.463-2.725
		c1.914-1.815,2.871-4.395,2.871-7.734c0-1.582-0.302-3.062-0.907-4.438c-0.604-1.376-1.461-2.754-2.569-4.131
		c-1.108-1.376-4.08-4.408-8.916-9.097c-5.894-5.507-10.176-11.132-12.845-16.875c-2.67-5.742-4.004-12.041-4.004-18.896
		c0-7.676,1.649-14.575,4.949-20.698c3.299-6.122,7.959-10.868,13.979-14.238c6.019-3.369,12.757-5.054,20.212-5.054
		c12.039,0,22.869,3.135,32.491,9.404L414.349,490.5c-8.614-5.155-15.943-7.734-21.988-7.734c-3.224,0-5.705,0.821-7.442,2.461
		c-1.738,1.641-2.607,4.043-2.607,7.207c0,2.871,0.843,5.552,2.531,8.042c1.687,2.491,4.898,5.815,9.634,9.976
		c5.943,5.098,10.352,10.459,13.223,16.084C410.571,532.16,412.006,538.606,412.006,545.871z"/>
	<path fill="none" stroke="#FFFFFF" d="M517.487,495.334c0,14.766-4.32,26.354-12.959,34.761
		c-8.639,8.408-20.465,12.612-35.475,12.612h-6.498l-7.557,42.627h-29.543l23.348-128.496h28.184
		c13.047,0,23.059,3.326,30.035,9.976C513.999,473.464,517.487,482.972,517.487,495.334z M467.845,514.582h4.76
		c4.584,0,8.287-1.714,11.107-5.142s4.232-7.778,4.232-13.052c0-3.457-0.908-6.24-2.721-8.35c-1.814-2.109-4.307-3.164-7.48-3.164
		h-4.459L467.845,514.582z"/>
	<path fill="none" stroke="#FFFFFF" d="M521.72,585.334l23.348-128.496h29.997l-23.348,128.496H521.72z"/>
	<path fill="none" stroke="#FFFFFF" d="M614.884,538.576l-8.538,46.758h-29.544l23.349-128.496h29.241
		c12.694,0,22.415,2.931,29.166,8.789c6.75,5.859,10.125,14.678,10.125,26.455c0,9.141-1.789,17.109-5.364,23.906
		c-3.578,6.798-8.892,11.983-15.943,15.557l16.925,45.352l3.022,8.438h-32.188L620.4,538.576H614.884z M619.645,512.473h3.854
		c4.785,0,8.588-1.596,11.409-4.79c2.82-3.193,4.231-7.66,4.231-13.403c0-3.633-0.869-6.401-2.606-8.306
		c-1.738-1.903-4.27-2.856-7.594-2.856h-4.005L619.645,512.473z"/>
	<path fill="none" stroke="#FFFFFF" d="M677.222,585.334l23.348-128.496h29.997l-23.348,128.496H677.222z"/>
	<path fill="none" stroke="#FFFFFF" d="M777.187,585.334h-29.544l17.907-100.107h-23.952l5.214-28.389h77.676l-5.365,28.389h-24.028
		L777.187,585.334z"/>
	<path fill="none" stroke="#FFFFFF" d="M923.168,454.816c13.097,0,23.284,4.351,30.563,13.052
		c7.278,8.701,10.919,20.845,10.919,36.431c0,15.587-2.507,29.839-7.519,42.759c-5.013,12.92-11.927,22.822-20.741,29.707
		c-8.815,6.886-19.041,10.327-30.678,10.327c-13.551,0-24.016-4.364-31.395-13.096c-7.38-8.73-11.069-20.859-11.069-36.387
		c0-15.526,2.594-29.795,7.782-42.803c5.188-13.008,12.253-22.925,21.194-29.751C901.167,458.23,911.48,454.816,923.168,454.816z
		 M934.804,504.65c0-6.68-1.209-11.909-3.627-15.688s-5.919-5.669-10.503-5.669c-4.986,0-9.571,2.461-13.752,7.383
		c-4.182,4.922-7.518,11.689-10.011,20.303c-2.494,8.613-3.74,17.433-3.74,26.455c0,14.181,5.036,21.27,15.111,21.27
		c4.785,0,9.23-2.431,13.337-7.295c4.104-4.863,7.329-11.426,9.671-19.688C933.633,523.459,934.804,514.437,934.804,504.65z"/>
	<path fill="none" stroke="#FFFFFF" d="M1001.447,585.334h-29.544l23.349-128.496h65.132l-5.063,27.861h-35.589l-4.382,24.521
		h32.944l-5.214,28.037h-33.096L1001.447,585.334z"/>
	<path fill="none" stroke="#FFFFFF" d="M1198.658,505.441c0,16.406-2.493,30.63-7.48,42.671s-12.229,21.256-21.724,27.642
		c-9.495,6.387-20.741,9.58-33.737,9.58h-35.589l23.349-128.496h31.433c13.902,0,24.67,4.233,32.302,12.7
		C1194.843,478.006,1198.658,489.973,1198.658,505.441z M1140.175,556.857c5.541,0,10.49-2.051,14.848-6.152
		c4.356-4.101,7.745-9.945,10.163-17.534c2.418-7.588,3.626-16.245,3.626-25.972c0-7.324-1.359-12.876-4.08-16.655
		c-2.72-3.779-6.523-5.669-11.409-5.669h-5.365l-12.996,71.982H1140.175z"/>
	<path fill="none" stroke="#FFFFFF" d="M1205.837,585.334l23.348-128.496h29.997l-23.348,128.496H1205.837z"/>
	<path fill="none" stroke="#FFFFFF" d="M1308.068,504.475l23.575-47.637h32.943l-46.242,78.662l-9.143,49.834h-29.544l9.067-49.834
		l-17.908-78.662h30.451L1308.068,504.475z"/>
</g>
</svg>
